<?xml version="1.0" encoding="UTF-8" standalone="no"?><!DOCTYPE svg PUBLIC "-//W3C//DTD SVG 1.1//EN" "http://www.w3.org/Graphics/SVG/1.1/DTD/svg11.dtd"><svg width="100%" height="100%" viewBox="0 0 24 24" version="1.1" xmlns="http://www.w3.org/2000/svg" xmlns:xlink="http://www.w3.org/1999/xlink" xml:space="preserve" xmlns:serif="http://www.serif.com/" style="fill-rule:evenodd;clip-rule:evenodd;stroke-linejoin:round;stroke-miterlimit:2;"><g><g><path d="M6.31,20.319l-3.211,1.155l3.211,1.155l0,-2.31Z" style="fill:#d7d6d8;"/><path d="M17.69,20.319l0,2.31l3.212,-1.155l-3.212,-1.155Z" style="fill:#d7d6d8;"/><path d="M14.403,2.406l0,7.53l1.81,0c0.647,0.036 1.113,0.283 1.449,0.654l0,-8.184c0,-0.897 -0.734,-1.631 -1.63,-1.631c-0.896,0 -1.629,0.734 -1.629,1.631Z" style="fill:#ffd4be;"/><path d="M16.621,19.77l0,-1.386c0,-0.527 0.132,-0.841 0.842,-1.523c0.739,-0.708 1.047,-1.133 1.047,-2.876c0,-1.103 -0.095,-2.561 -0.848,-3.395c-0.336,-0.371 -0.802,-0.618 -1.449,-0.654l-3.334,0c-1.085,0 -1.652,0.613 -1.736,1.283l0,0.082c0,0.057 -0.002,0.113 -0.009,0.17c-0.085,0.817 -0.781,1.46 -1.62,1.46c-0.897,0 -1.63,-0.733 -1.63,-1.63l0,-6.129c0,-2.543 -2.832,-2.091 -2.832,-0.284l0,8.633c0,3.938 1.582,4.972 2.134,6.249l9.435,0Z" style="fill:#ffd4be;"/><path d="M9.514,12.931c0.839,0 1.535,-0.643 1.62,-1.46c-0.004,-0.084 -0.001,-0.168 0.009,-0.252l0,-3.341c0,-2.142 -3.259,-2.142 -3.259,0l0,3.423c0,0.897 0.734,1.63 1.63,1.63Z" style="fill:#ffbf9e;"/><path d="M11.143,11.219c0.084,-0.67 0.651,-1.283 1.736,-1.283l1.524,0l0,-2.058c0,-2.239 -3.26,-2.173 -3.26,0l0,3.341Z" style="fill:#ffbf9e;"/><path d="M17.141,19.77l-10.282,0c-0.302,0 -0.549,0.246 -0.549,0.549l0,2.31c0,0.303 0.247,0.549 0.549,0.549l10.282,0c0.303,0 0.549,-0.246 0.549,-0.549l0,-2.31c0,-0.303 -0.246,-0.549 -0.549,-0.549Z" style="fill:#f5737f;"/><path d="M9.394,21.015l-0.017,0c-0.253,0 -0.459,0.206 -0.459,0.459c0,0.253 0.206,0.459 0.459,0.459l0.017,0c0.253,0 0.458,-0.206 0.458,-0.459c0,-0.253 -0.205,-0.459 -0.458,-0.459Z" style="fill-rule:nonzero;"/><path d="M12.018,21.015l-0.017,0c-0.253,0 -0.459,0.206 -0.459,0.459c0,0.253 0.206,0.459 0.459,0.459l0.017,0c0.253,0 0.458,-0.206 0.458,-0.459c0,-0.253 -0.205,-0.459 -0.458,-0.459Z" style="fill-rule:nonzero;"/><path d="M14.64,20.998l-0.017,0c-0.253,0 -0.458,0.206 -0.458,0.459c0,0.253 0.205,0.459 0.458,0.459l0.017,0c0.253,0 0.459,-0.206 0.459,-0.459c0,-0.253 -0.205,-0.459 -0.459,-0.459Z" style="fill-rule:nonzero;"/><path d="M21.057,21.042l-2.969,-1.068c-0.141,-0.386 -0.512,-0.663 -0.947,-0.663l-0.061,0l0,-0.927c0,-0.35 0.029,-0.548 0.7,-1.192c0.827,-0.792 1.189,-1.335 1.189,-3.207c0,-0.73 0,-2.468 -0.849,-3.562l0,-8.017c0,-1.153 -0.936,-2.09 -2.088,-2.09c-1.151,0 -2.088,0.937 -2.088,2.09l0,3.686c-0.334,-0.213 -0.732,-0.328 -1.153,-0.328c-0.624,0 -1.253,0.259 -1.659,0.761c-0.403,-0.47 -1.012,-0.713 -1.618,-0.713c-0.411,0 -0.823,0.112 -1.171,0.33l0,-0.97c0,-0.688 -0.188,-1.262 -0.544,-1.66c-0.33,-0.369 -0.788,-0.572 -1.29,-0.572c-0.941,0 -1.915,0.728 -1.915,1.948l0,6.251c0,0.254 0.205,0.459 0.458,0.459c0.254,0 0.459,-0.205 0.459,-0.459l0,-6.251c0,-0.645 0.507,-1.031 0.998,-1.031c0.168,0 0.409,0.046 0.606,0.266c0.203,0.228 0.31,0.59 0.31,1.049l0,6.129c0,1.152 0.937,2.089 2.089,2.089c0.65,0 1.231,-0.298 1.614,-0.766c0.371,0.443 0.964,0.757 1.76,0.757l1.228,0c0.678,0 0.678,0.449 0.678,0.641l0,0.731c0,0.254 0.205,0.459 0.458,0.459c0.253,0 0.459,-0.205 0.459,-0.459l0,-0.731c0,-0.947 -0.626,-1.558 -1.595,-1.558l-1.228,0c-0.849,0 -1.256,-0.503 -1.293,-0.995c0.004,-0.056 0.007,-0.112 0.007,-0.168l0,-0.039c0.029,-0.207 0.124,-0.394 0.276,-0.538c0.228,-0.215 0.574,-0.329 1.001,-0.329l3.321,0c1.28,0.078 1.852,1.186 1.852,3.59c0,1.612 -0.262,1.927 -0.907,2.545c-0.753,0.724 -0.983,1.157 -0.983,1.854l0,0.927l-8.69,0c-0.138,-0.258 -0.305,-0.508 -0.479,-0.769c-0.496,-0.742 -1.058,-1.584 -1.328,-3.104c-0.044,-0.249 -0.282,-0.415 -0.531,-0.371c-0.25,0.044 -0.416,0.282 -0.372,0.531c0.303,1.709 0.949,2.677 1.468,3.454c0.08,0.12 0.156,0.233 0.226,0.343c-0.251,0.11 -0.45,0.32 -0.544,0.579l-2.969,1.068c-0.182,0.066 -0.303,0.238 -0.303,0.432c0,0.193 0.121,0.366 0.303,0.432l2.969,1.067c0.141,0.387 0.512,0.664 0.947,0.664l10.282,0c0.435,0 0.806,-0.277 0.947,-0.664l2.969,-1.067c0.182,-0.066 0.303,-0.239 0.303,-0.432c0,-0.194 -0.121,-0.366 -0.303,-0.432Zm-11.543,-8.569c-0.646,0 -1.171,-0.526 -1.171,-1.172l0,-3.423c0,-0.793 0.588,-1.148 1.171,-1.148c0.583,0 1.171,0.355 1.171,1.148l0,3.319c-0.007,0.065 -0.011,0.132 -0.011,0.198c0,0.017 0.001,0.033 0.002,0.05c-0.072,0.578 -0.565,1.028 -1.162,1.028Zm2.088,-2.68l0,-1.915c0,-0.827 0.597,-1.196 1.189,-1.196c0.31,0 0.594,0.103 0.8,0.291c0.234,0.213 0.353,0.517 0.353,0.905l0,1.6l-1.065,0c-0.489,0 -0.922,0.108 -1.277,0.315Zm4.611,-0.315l-1.352,0l0,-7.072c0,-0.647 0.525,-1.172 1.171,-1.172c0.646,0 1.171,0.525 1.171,1.172l0,7.293c-0.276,-0.122 -0.595,-0.2 -0.965,-0.221c-0.008,0 -0.017,0 -0.025,0Zm-10.362,11.493l0,1.006l-1.397,-0.503l1.397,-0.503Zm11.38,1.658c0,0.049 -0.041,0.091 -0.09,0.091l-10.282,0c-0.049,0 -0.09,-0.042 -0.09,-0.091l0,-2.31c0,-0.049 0.041,-0.091 0.09,-0.091l10.282,0c0.049,0 0.09,0.042 0.09,0.091l0,2.31Zm0.918,-0.652l0,-1.006l1.397,0.503l-1.397,0.503Z" style="fill-rule:nonzero;"/><path d="M5.052,13.735c0.254,0 0.459,-0.205 0.459,-0.459l0,-0.007c0,-0.254 -0.205,-0.459 -0.459,-0.459c-0.253,0 -0.458,0.205 -0.458,0.459l0,0.007c0,0.254 0.205,0.459 0.458,0.459Z" style="fill-rule:nonzero;"/></g></g></svg>